# xmcd
# 
# Track frame offsets:
#     183
#     10923
#     20178
#     29155
#     39903
#     51040
#     60783
#     70893
#     82288
#     93658
#     106058
#     116708
#     131163
#     140715
#     151270
#     161138
#     171445
#     184263
# 
# Disc length: 2604
# 
# Revision: 6
# Processed by: cddbd v1.5.2PL0 Copyright (c) Steve Scherf et al.
# Submitted via: BonkEnc v1.0.8
# 
DISCID=030a2a12
DTITLE=The Beatles - 1962-1970 (Part 1)
DYEAR=1990
DGENRE=Rock
TTITLE0=Love Me Do
TTITLE1=Please Please Me
TTITLE2=From Me To You
TTITLE3=She Loves You
TTITLE4=I Want To Hold Your Hand
TTITLE5=All My Loving
TTITLE6=Can't Buy Me Love
TTITLE7=A Hard Day's Night
TTITLE8=And I Lover Her
TTITLE9=Eight Days A Week
TTITLE10=I Feel Fine
TTITLE11=Ticket To Ride
TTITLE12=Yesterday
TTITLE13=Help!
TTITLE14=You've Got To Hide Your Love Away
TTITLE15=We Can Work It Out
TTITLE16=Day Tripper
TTITLE17=Drive My Car
EXTD=ID3G: 0
EXTT0=
EXTT1=
EXTT2=
EXTT3=
EXTT4=
EXTT5=
EXTT6=
EXTT7=
EXTT8=
EXTT9=
EXTT10=
EXTT11=
EXTT12=
EXTT13=
EXTT14=
EXTT15=
EXTT16=
EXTT17=
PLAYORDER=
